# xmcd
#
# Track frame offsets:
#	150
#	19587
#	30559
#	58854
#	102205
#	124470
#
# Disc length: 2227 seconds
#
# Revision: 0
# Processed by: cddbd v1.5.2PL0 Copyright (c) Steve Scherf et al.
# Submitted via: EasyCDDAExtractor 9.0.0.1
#
DISCID=4a08b106
DTITLE=Deep Purple - Torwar Warzaw 09-10-06 Disc 2
DYEAR=2006
DGENRE=Hard Rock
TTITLE0=Space Trucking
TTITLE1=Highway Star Intro
TTITLE2=Highway Star
TTITLE3=Smoke On The Water
TTITLE4=Hush
TTITLE5=Black Night
EXTD=
EXTT0=
EXTT1=
EXTT2=
EXTT3=
EXTT4=
EXTT5=
PLAYORDER=
